<svg width="1536" height="231" fill="none" xmlns="http://www.w3.org/2000/svg" id="root"><path d="M304.318 183.358V83.82h22.12v24.331l-2.396-3.133c1.29-3.441 3.01-6.575 5.161-9.401 2.15-2.827 4.792-5.162 7.926-7.005 2.396-1.474 5.008-2.611 7.834-3.41a37.92 37.92 0 018.756-1.567 44.403 44.403 0 019.032.185v23.409c-2.765-.86-5.991-1.136-9.678-.829-3.625.246-6.912 1.075-9.861 2.488-2.949 1.352-5.438 3.165-7.465 5.438-2.028 2.212-3.564 4.854-4.609 7.926-1.044 3.011-1.567 6.421-1.567 10.231v50.875h-25.253zm114.901 2.764c-10.2 0-19.201-2.181-27.004-6.543-7.742-4.424-13.825-10.476-18.249-18.157-4.362-7.742-6.544-16.589-6.544-26.543 0-10.876 2.151-20.338 6.452-28.387s10.23-14.285 17.788-18.71c7.557-4.485 16.251-6.727 26.082-6.727 10.446 0 19.324 2.457 26.636 7.373 7.312 4.915 12.719 11.828 16.221 20.737 3.502 8.909 4.731 19.385 3.687 31.428h-24.793v-9.216c0-10.138-1.628-17.42-4.885-21.843-3.195-4.486-8.448-6.728-15.76-6.728-8.54 0-14.838 2.611-18.893 7.834-3.994 5.161-5.991 12.81-5.991 22.949 0 9.278 1.997 16.466 5.991 21.566 4.055 5.038 9.984 7.558 17.787 7.558 4.916 0 9.125-1.076 12.627-3.226 3.502-2.151 6.175-5.254 8.018-9.309l25.069 7.189c-3.748 9.094-9.677 16.16-17.788 21.198-8.049 5.038-16.866 7.557-26.451 7.557zm-32.995-45.529v-18.617h65.99v18.617h-65.99zm137.215 45.529c-10.323 0-19.171-2.304-26.544-6.912-7.373-4.608-13.026-10.875-16.958-18.801-3.933-7.927-5.899-16.867-5.899-26.82 0-10.077 2.028-19.079 6.083-27.005 4.117-7.926 9.892-14.162 17.327-18.71 7.435-4.546 16.221-6.82 26.359-6.82 11.736 0 21.567 2.98 29.493 8.94 7.988 5.9 13.087 13.979 15.299 24.24l-25.069 6.636c-1.474-5.161-4.055-9.186-7.741-12.074-3.626-2.888-7.742-4.331-12.35-4.331-5.285 0-9.616 1.29-12.996 3.87-3.379 2.52-5.867 5.991-7.465 10.415-1.598 4.363-2.396 9.309-2.396 14.839 0 8.663 1.904 15.698 5.714 21.105 3.871 5.346 9.585 8.019 17.143 8.019 5.652 0 9.953-1.291 12.903-3.871 2.949-2.581 5.161-6.267 6.635-11.06l25.622 5.346c-2.826 10.568-8.172 18.709-16.036 24.423-7.865 5.714-17.573 8.571-29.124 8.571zm101.631 0c-10.199 0-19.201-2.181-27.004-6.543-7.742-4.424-13.825-10.476-18.249-18.157-4.362-7.742-6.543-16.589-6.543-26.543 0-10.876 2.15-20.338 6.451-28.387s10.231-14.285 17.788-18.71c7.558-4.485 16.252-6.727 26.083-6.727 10.445 0 19.324 2.457 26.635 7.373 7.312 4.915 12.719 11.828 16.221 20.737 3.503 8.909 4.731 19.385 3.687 31.428h-24.792v-9.216c0-10.138-1.629-17.42-4.885-21.843-3.195-4.486-8.449-6.728-15.76-6.728-8.541 0-14.839 2.611-18.894 7.834-3.994 5.161-5.991 12.81-5.991 22.949 0 9.278 1.997 16.466 5.991 21.566 4.055 5.038 9.984 7.558 17.788 7.558 4.915 0 9.124-1.076 12.626-3.226 3.503-2.151 6.175-5.254 8.019-9.309l25.068 7.189c-3.748 9.094-9.677 16.16-17.787 21.198-8.049 5.038-16.867 7.557-26.452 7.557zm-32.995-45.529v-18.617h65.99v18.617h-65.99zm139.492 45.529c-9.893 0-18.157-2.304-24.793-6.912-6.635-4.608-11.643-10.875-15.022-18.801-3.318-7.927-4.977-16.867-4.977-26.82 0-9.954 1.659-18.894 4.977-26.82 3.317-7.927 8.202-14.194 14.654-18.802 6.451-4.608 14.408-6.912 23.87-6.912 9.524 0 17.819 2.273 24.885 6.82 7.066 4.547 12.534 10.783 16.405 18.709 3.933 7.865 5.899 16.866 5.899 27.005 0 9.953-1.936 18.893-5.807 26.82-3.809 7.926-9.155 14.193-16.036 18.801-6.882 4.608-14.9 6.912-24.055 6.912zm-49.032 41.475V83.82h22.12v68.202h3.133v75.575h-25.253zm44.976-63.778c5.407 0 9.831-1.352 13.272-4.056 3.441-2.703 5.991-6.328 7.65-10.875 1.659-4.608 2.488-9.708 2.488-15.299 0-5.53-.86-10.569-2.58-15.115-1.721-4.609-4.394-8.265-8.019-10.968-3.563-2.765-8.141-4.147-13.732-4.147-5.223 0-9.462 1.259-12.719 3.778-3.195 2.519-5.53 6.052-7.004 10.599-1.475 4.547-2.212 9.831-2.212 15.853 0 6.021.737 11.305 2.212 15.852 1.474 4.547 3.87 8.08 7.188 10.599 3.38 2.519 7.865 3.779 13.456 3.779zm124.427 19.539c-6.881 1.29-13.64 1.843-20.276 1.659-6.574-.123-12.473-1.26-17.696-3.411-5.161-2.212-9.093-5.745-11.797-10.599-2.458-4.546-3.748-9.155-3.871-13.824a623.383 623.383 0 01-.184-16.037V56.17h25.069v83.501c0 3.871.03 7.374.092 10.507.123 3.072.768 5.53 1.935 7.373 2.212 3.503 5.745 5.407 10.599 5.715 4.854.307 10.231.061 16.129-.738v20.83zm-70.782-80.184V83.82h70.782v19.354h-70.782zm89.277-33.18V47.876h25.069v22.12h-25.069zm0 113.364V83.82h25.069v99.538h-25.069zm91.962 2.764c-10.016 0-18.802-2.242-26.359-6.728-7.558-4.485-13.456-10.66-17.696-18.525-4.178-7.926-6.267-17.019-6.267-27.28 0-10.384 2.15-19.509 6.451-27.373 4.301-7.926 10.231-14.101 17.788-18.525 7.558-4.424 16.252-6.636 26.083-6.636 10.015 0 18.801 2.242 26.359 6.728 7.619 4.485 13.546 10.69 17.786 18.617 4.24 7.865 6.36 16.928 6.36 27.189 0 10.322-2.15 19.446-6.45 27.373-4.24 7.864-10.169 14.039-17.788 18.525-7.558 4.424-16.313 6.635-26.267 6.635zm0-23.409c8.049 0 14.039-2.704 17.972-8.111 3.994-5.468 5.991-12.473 5.991-21.013 0-8.848-2.028-15.914-6.083-21.198-3.994-5.284-9.954-7.926-17.88-7.926-5.469 0-9.954 1.228-13.456 3.686-3.503 2.458-6.114 5.868-7.834 10.23-1.659 4.363-2.489 9.432-2.489 15.208 0 8.909 1.997 16.006 5.991 21.29 4.055 5.222 9.984 7.834 17.788 7.834zm133.075 20.645v-47.004c0-2.274-.12-5.162-.37-8.664-.24-3.564-1.01-7.127-2.3-10.691-1.29-3.564-3.41-6.544-6.36-8.94-2.89-2.396-7-3.594-12.35-3.594-2.15 0-4.45.337-6.91 1.013-2.46.676-4.76 1.997-6.91 3.963-2.16 1.905-3.94 4.732-5.35 8.48-1.35 3.748-2.03 8.725-2.03 14.93l-14.38-6.82c0-7.865 1.6-15.238 4.8-22.119 3.19-6.882 7.98-12.443 14.37-16.682 6.46-4.24 14.57-6.36 24.34-6.36 7.8 0 14.16 1.321 19.07 3.963 4.92 2.642 8.73 5.991 11.43 10.046 2.77 4.056 4.73 8.295 5.9 12.719 1.17 4.363 1.88 8.356 2.12 11.982.25 3.625.37 6.267.37 7.926v55.852h-25.44zm-68.02 0V83.82h22.31v32.995h3.13v66.543h-25.44zm139.53-.185v-21.751l55.67-49.4c4.18-3.687 7.13-7.158 8.85-10.415 1.72-3.256 2.58-6.297 2.58-9.124 0-4.055-.83-7.65-2.49-10.783-1.66-3.195-4-5.684-7.01-7.466-3.01-1.843-6.54-2.764-10.6-2.764-4.24 0-7.98.983-11.24 2.949-3.19 1.905-5.68 4.455-7.47 7.65-1.78 3.133-2.61 6.543-2.48 10.23h-25.81c0-9.094 2-16.959 5.99-23.594 3.99-6.636 9.56-11.767 16.68-15.392 7.13-3.625 15.43-5.438 24.89-5.438 8.66 0 16.4 1.905 23.22 5.715 6.88 3.748 12.29 9.001 16.22 15.76 3.94 6.759 5.9 14.593 5.9 23.502 0 6.574-.92 12.043-2.76 16.405-1.85 4.301-4.58 8.295-8.21 11.982-3.62 3.625-8.08 7.741-13.36 12.35l-35.94 31.52-2.03-5.53h62.3v23.594h-92.9zm159.81.185v-20.645h-57.69v-23.41l41.84-88.663h28.75l-41.84 88.663h28.94v-33.18h25.44v33.18h11.8v23.41h-11.8v20.645h-25.44zm87.42-132.718l-35.39 132.718h25.06l35.4-132.718h-25.07zm50.18 132.718L1509 74.234h-56.78V50.64h83.69v23.594l-44.42 109.124h-27.1z" fill="#374151"/><circle cx="117.954" cy="112.316" fill="#0694A2" r="112.316"/><path d="M215.889 114.228c1.802 60.132-124.306 93.582-186.81 95.456-62.503 1.873-4.796-5.364-4.796-52.758C22.482 96.794 36.95 10.615 99.454 8.741c62.503-1.873 114.633 45.355 116.436 105.487z" fill="#0694A2"/><path d="M172.414 129.334c0 30.075-24.381 54.456-54.457 54.456-30.075 0-54.456-24.381-54.456-54.456H172.414z" fill="#fff"/></svg>